# This file uses centimeters as units for non-parametric coordinates.

mtllib PawShip.mtl
g default
v 0.000000 0.826304 -0.327352
v -0.444200 0.192174 -0.131756
v -0.342416 -0.043936 1.071772
v 0.000000 0.101180 1.346921
v 0.444200 0.192174 -0.131756
v 0.342416 -0.043936 1.071772
vt 0.769536 0.028017
vt 0.824343 0.003912
vt 0.823447 0.240054
vt 0.736694 0.183876
vt 0.878966 0.028432
vt 0.910623 0.184536
vn -0.694061 0.675099 0.250043
vn -0.694061 0.675099 0.250043
vn -0.694061 0.675099 0.250043
vn -0.694061 0.675099 0.250043
vn 0.694061 0.675099 0.250043
vn 0.694061 0.675099 0.250043
vn 0.694061 0.675099 0.250043
vn 0.694061 0.675099 0.250043
s off
g glass PawShip
usemtl blinn2SG
f 3/1/1 4/2/2 1/3/3 2/4/4
f 6/5/5 5/6/6 1/3/7 4/2/8
g default
v -0.887199 -0.328151 0.518286
v -1.560737 -0.256682 -0.236311
v 0.000000 -0.448592 2.843572
v 0.000000 -0.528457 -1.020922
v 0.000000 0.367972 -1.020928
v 0.000000 -0.557388 1.035794
v -1.301594 -0.161379 -2.014187
v 0.887199 -0.328151 0.518286
v 1.560737 -0.256682 -0.236311
v 1.301594 -0.161379 -2.014187
v -0.444200 0.192174 -0.131756
v -0.342416 -0.043936 1.071772
v 0.000000 0.101180 1.346921
v 0.342416 -0.043936 1.071772
v 0.444200 0.192174 -0.131756
v 0.000000 0.826304 -0.327352
vt 0.780312 0.878522
vt 0.995053 0.926667
vt 0.780312 0.996094
vt 0.857915 0.391174
vt 0.658328 0.489069
vt 0.658328 0.231676
vt 0.773440 0.295898
vt 0.081938 0.314791
vt 0.178379 0.249172
vt 0.162084 0.421896
vt 0.658328 0.003911
vt 0.231463 0.003908
vt 0.231463 0.214171
vt 0.231491 0.441461
vt 0.231510 0.523901
vt 0.827369 0.615025
vt 0.003906 0.437957
vt 0.057531 0.667291
vt 0.565572 0.926667
vt 0.458740 0.391173
vt 0.543216 0.295897
vt 0.381002 0.314772
vt 0.300893 0.421882
vt 0.284556 0.249166
vt 0.489286 0.615025
vt 0.459058 0.437895
vt 0.405513 0.667217
vt 0.929154 0.090264
vt 0.871353 0.003913
vt 0.986956 0.003913
vt 0.982667 0.203865
vt 0.995911 0.363458
vt 0.880309 0.363458
vt 0.893554 0.203865
vt 0.951414 0.080044
vt 0.995971 0.120522
vt 0.906857 0.120522
vn 0.606651 -0.000005 -0.794969
vn 0.606651 -0.000005 -0.794969
vn 0.606651 -0.000005 -0.794969
vn -0.199162 -0.979884 0.012721
vn -0.199162 -0.979884 0.012721
vn -0.238556 -0.970526 0.034200
vn -0.207708 -0.978037 0.017364
vn -0.624463 0.745924 0.231613
vn -0.646038 0.714302 0.269086
vn -0.606530 0.768933 0.202146
vn -0.281142 -0.957933 0.057650
vn -0.207708 -0.978037 0.017364
vn -0.238556 -0.970526 0.034200
vn -0.559405 0.778061 0.285809
vn -0.559405 0.778061 0.285809
vn -0.559405 0.778061 0.285809
vn -0.820211 0.477266 -0.315390
vn -0.820211 0.477266 -0.315390
vn -0.820211 0.477266 -0.315390
vn -0.211314 -0.973887 -0.083007
vn -0.211314 -0.973887 -0.083007
vn -0.211314 -0.973887 -0.083007
vn -0.624463 0.745924 0.231613
vn -0.655459 0.698867 0.286285
vn -0.646038 0.714302 0.269086
vn -0.372624 0.927971 -0.004570
vn -0.372624 0.927971 -0.004570
vn -0.372624 0.927971 -0.004570
vn -0.374326 0.927290 -0.003666
vn -0.374326 0.927290 -0.003666
vn -0.374326 0.927290 -0.003666
vn -0.372858 0.831618 0.411569
vn -0.372858 0.831618 0.411569
vn -0.372858 0.831618 0.411569
vn -0.606650 -0.000005 -0.794969
vn -0.606650 -0.000005 -0.794969
vn -0.606650 -0.000005 -0.794969
vn 0.199162 -0.979884 0.012721
vn 0.207708 -0.978037 0.017364
vn 0.238556 -0.970526 0.034200
vn 0.199162 -0.979884 0.012721
vn 0.624463 0.745924 0.231613
vn 0.606530 0.768933 0.202146
vn 0.646038 0.714302 0.269086
vn 0.281142 -0.957933 0.057650
vn 0.238556 -0.970526 0.034200
vn 0.207708 -0.978037 0.017364
vn 0.559405 0.778061 0.285809
vn 0.559405 0.778061 0.285809
vn 0.559405 0.778061 0.285809
vn 0.820211 0.477266 -0.315390
vn 0.820211 0.477266 -0.315390
vn 0.820211 0.477266 -0.315390
vn 0.211314 -0.973887 -0.083007
vn 0.211314 -0.973887 -0.083007
vn 0.211314 -0.973887 -0.083007
vn 0.624463 0.745924 0.231613
vn 0.646038 0.714302 0.269086
vn 0.655459 0.698867 0.286285
vn 0.372624 0.927971 -0.004570
vn 0.372624 0.927971 -0.004570
vn 0.372624 0.927971 -0.004570
vn 0.374326 0.927290 -0.003666
vn 0.374326 0.927290 -0.003666
vn 0.374326 0.927290 -0.003666
vn 0.372858 0.831618 0.411569
vn 0.372858 0.831618 0.411569
vn 0.372858 0.831618 0.411569
vn 0.000000 0.294746 0.955576
vn 0.000000 0.294746 0.955576
vn 0.000000 0.294746 0.955576
vn 0.000000 0.981295 0.192513
vn 0.000000 0.981295 0.192513
vn 0.000000 0.981295 0.192513
vn 0.000000 0.981295 0.192513
vn 0.000000 0.884519 -0.466504
vn 0.000000 0.884519 -0.466504
vn 0.000000 0.884519 -0.466504
s off
g PawShip body
usemtl blinn2SG
f 10/7/9 13/8/10 11/9/11
f 8/10/12 10/11/13 12/12/14 7/13/15
f 7/14/16 18/15/17 17/16/18
f 9/17/19 7/13/20 12/12/21
f 9/18/22 19/19/23 18/15/24
f 22/20/25 11/21/26 17/16/27
f 8/10/28 13/22/29 10/11/30
f 7/14/31 9/18/32 18/15/33
f 8/23/34 17/16/35 13/24/36
f 11/21/37 13/24/38 17/16/39
f 7/14/40 17/16/41 8/23/42
f 10/7/43 11/9/44 16/25/45
f 15/26/46 14/27/47 12/12/48 10/11/49
f 14/28/50 21/29/51 20/30/52
f 9/17/53 12/12/54 14/27/55
f 9/18/56 20/30/57 19/19/58
f 22/20/59 21/29/60 11/21/61
f 15/26/62 10/11/63 16/31/64
f 14/28/65 20/30/66 9/18/67
f 15/32/68 16/33/69 21/29/70
f 11/21/71 21/29/72 16/33/73
f 14/28/74 15/32/75 21/29/76
f 22/34/77 17/35/78 21/36/79
f 20/37/80 21/38/81 17/39/82 18/40/83
f 19/41/84 20/42/85 18/43/86
g default
v -2.714174 1.203413 -2.164233
v -0.962315 -0.113177 -1.408584
v -0.676597 -0.024780 -1.019711
v -0.886048 -0.282623 0.115602
v 2.714174 1.203413 -2.164233
v 0.962315 -0.113177 -1.408584
v 0.676597 -0.024780 -1.019711
v 0.886048 -0.282623 0.115602
vt 0.658221 0.498231
vt 0.566587 0.757152
vt 0.544749 0.711023
vt 0.658221 0.839295
vt 0.760523 0.716612
vt 0.516314 0.765951
vt 0.156467 0.620652
vt 0.269938 0.833443
vt 0.248101 0.879573
vt 0.156467 0.961716
vt 0.054165 0.839033
vt 0.298374 0.888372
vn 0.633949 0.509702 -0.581647
vn 0.633949 0.509702 -0.581647
vn 0.633949 0.509702 -0.581647
vn 0.380677 0.884100 0.271020
vn 0.380677 0.884100 0.271020
vn 0.380677 0.884100 0.271020
vn -0.582743 -0.810369 -0.060930
vn -0.582743 -0.810369 -0.060930
vn -0.582743 -0.810369 -0.060930
vn 0.439912 -0.889860 -0.120939
vn 0.439912 -0.889860 -0.120939
vn 0.439912 -0.889860 -0.120939
vn -0.633949 0.509700 -0.581648
vn -0.633949 0.509700 -0.581648
vn -0.633949 0.509700 -0.581648
vn -0.380677 0.884100 0.271020
vn -0.380677 0.884101 0.271019
vn -0.380677 0.884101 0.271019
vn 0.582743 -0.810369 -0.060930
vn 0.582743 -0.810369 -0.060930
vn 0.582743 -0.810369 -0.060930
vn -0.439912 -0.889860 -0.120939
vn -0.439912 -0.889860 -0.120939
vn -0.439912 -0.889860 -0.120939
s off
g PawShip wings_01
usemtl blinn2SG
f 23/44/87 25/45/88 24/46/89
f 23/44/90 26/47/91 25/45/92
f 24/48/93 26/47/94 23/44/95
f 26/47/96 24/49/97 25/45/98
f 27/50/99 28/51/100 29/52/101
f 27/50/102 29/52/103 30/53/104
f 28/54/105 27/50/106 30/53/107
f 30/53/108 29/52/109 28/55/110
g default
v -3.032006 -1.190716 0.443980
v 3.032006 -1.190716 0.443980
v -1.098233 -0.266915 -0.261199
v 1.098233 -0.266915 -0.261199
v -0.741256 -0.189181 -1.292554
v 0.741256 -0.189181 -1.292554
v -1.310710 -0.529093 -1.330209
v 1.310710 -0.529093 -1.330209
v 1.240180 -0.332128 -0.971399
v 0.810674 -0.053805 -0.934237
v -1.240180 -0.332128 -0.971399
v -0.810674 -0.053805 -0.934237
vt 0.453085 0.888794
vt 0.528350 0.896464
vt 0.508104 0.945863
vt 0.869164 0.781758
vt 0.793620 0.788640
vt 0.869164 0.546875
vt 0.812998 0.838048
vt 0.453086 0.654080
vt 0.362365 0.957544
vt 0.336556 0.893439
vt 0.985864 0.786493
vt 0.959977 0.850397
vt 0.571386 0.892572
vt 0.546960 0.957173
vt 0.511959 0.986160
vt 0.750768 0.784462
vt 0.774145 0.848341
vt 0.808322 0.878341
vn 0.545487 0.837503 0.032124
vn 0.545487 0.837503 0.032124
vn 0.545487 0.837503 0.032124
vn -0.430142 0.902756 0.003077
vn -0.430142 0.902756 0.003077
vn -0.430142 0.902756 0.003077
vn -0.545488 0.837503 0.032124
vn -0.545488 0.837503 0.032124
vn -0.545488 0.837503 0.032124
vn 0.430142 0.902756 0.003077
vn 0.430142 0.902756 0.003077
vn 0.430142 0.902756 0.003077
vn -0.504070 -0.856641 0.109905
vn -0.504069 -0.856642 0.109905
vn -0.504070 -0.856641 0.109905
vn 0.463935 -0.877296 0.122947
vn 0.463936 -0.877296 0.122947
vn 0.463936 -0.877296 0.122947
vn 0.504069 -0.856642 0.109905
vn 0.504069 -0.856642 0.109905
vn 0.504069 -0.856642 0.109905
vn -0.463936 -0.877296 0.122947
vn -0.463935 -0.877296 0.122947
vn -0.463936 -0.877296 0.122947
vn 0.468476 0.801859 -0.370881
vn 0.468476 0.801859 -0.370881
vn 0.468476 0.801859 -0.370881
vn 0.468476 0.801859 -0.370881
vn -0.906854 -0.304947 0.290900
vn -0.906854 -0.304947 0.290900
vn -0.906854 -0.304947 0.290900
vn 0.592338 0.749700 -0.295104
vn 0.592338 0.749700 -0.295104
vn 0.592338 0.749700 -0.295104
vn -0.592338 0.749700 -0.295104
vn -0.592338 0.749700 -0.295104
vn -0.592338 0.749700 -0.295104
vn -0.468476 0.801859 -0.370881
vn -0.468476 0.801859 -0.370881
vn -0.468476 0.801859 -0.370881
vn -0.468476 0.801859 -0.370881
vn 0.906854 -0.304946 0.290900
vn 0.906854 -0.304946 0.290900
vn 0.906854 -0.304946 0.290900
s off
g PawShip wings_02
usemtl blinn2SG
f 34/56/111 39/57/112 40/58/113
f 33/59/114 41/60/115 31/61/116
f 42/62/117 41/60/118 33/59/119
f 32/63/120 39/57/121 34/56/122
f 34/56/123 36/64/124 38/65/125
f 33/59/126 31/61/127 37/66/128
f 35/67/129 33/59/130 37/66/131
f 32/63/132 34/56/133 38/65/134
f 38/68/135 36/69/136 40/58/137 39/57/138
f 36/70/139 34/56/140 40/58/141
f 32/63/142 38/68/143 39/57/144
f 37/71/145 31/61/146 41/60/147
f 35/72/148 37/71/149 41/60/150 42/62/151
f 33/59/152 35/73/153 42/62/154
g default
v -0.711829 -0.605746 1.766295
v -0.503166 -0.605746 -0.997065
v -0.920492 -0.605746 -0.997065
v -0.711829 -0.987942 -0.997065
v -0.711829 -0.605746 -1.625815
v 0.711829 -0.605746 1.766295
v 0.503166 -0.605746 -0.997065
v 0.920492 -0.605746 -0.997065
v 0.711829 -0.987942 -0.997065
v 0.711829 -0.605746 -1.625815
v -0.656604 -0.697889 -0.122569
v -0.780635 -0.697889 -0.122569
v -0.656604 -0.121927 -0.513777
v -0.780635 -0.121927 -0.513777
v -0.656604 -0.018656 -1.143345
v -0.780635 -0.018656 -1.143345
v -0.656604 -0.697889 -1.143345
v -0.780635 -0.697889 -1.143345
v 0.656604 -0.697889 -0.122569
v 0.780635 -0.697889 -0.122569
v 0.656604 -0.121927 -0.513777
v 0.780635 -0.121927 -0.513777
v 0.656604 -0.018656 -1.143345
v 0.780635 -0.018656 -1.143345
v 0.656604 -0.697889 -1.143345
v 0.780635 -0.697889 -1.143345
vt 0.003906 0.368070
vt 0.134467 0.038184
vt 0.130560 0.107363
vt 0.050163 0.075168
vt 0.003906 0.073144
vt 0.017120 0.003906
vt 0.091396 0.091802
vt 0.423617 0.368070
vt 0.296963 0.107362
vt 0.293055 0.038182
vt 0.377360 0.075166
vt 0.423617 0.073142
vt 0.410404 0.003907
vt 0.336127 0.091800
vt 0.447263 0.197631
vt 0.501580 0.234519
vt 0.495011 0.244197
vt 0.440691 0.207307
vt 0.506556 0.242305
vt 0.516290 0.301674
vt 0.504750 0.303567
vt 0.504752 0.315264
vt 0.440692 0.315273
vt 0.440691 0.303574
vt 0.428994 0.303574
vt 0.428994 0.207308
vt 0.536745 0.162147
vt 0.560348 0.221688
vt 0.541130 0.039395
vt 0.547702 0.049070
vt 0.493386 0.085962
vt 0.486814 0.076288
vt 0.481844 0.084070
vt 0.483647 0.145336
vt 0.472106 0.143441
vt 0.483648 0.157030
vt 0.547702 0.145335
vt 0.547702 0.157031
vt 0.559399 0.145335
vt 0.559399 0.049072
vt 0.451645 0.003912
vt 0.428034 0.063457
vn 0.000000 1.000000 0.000000
vn 0.000000 1.000000 0.000000
vn 0.000000 1.000000 0.000000
vn -0.875788 -0.478144 0.066131
vn -0.875788 -0.478144 0.066131
vn -0.875788 -0.478144 0.066131
vn -0.842688 -0.460072 -0.279663
vn -0.842688 -0.460072 -0.279663
vn -0.842688 -0.460072 -0.279663
vn 0.875789 -0.478143 0.066131
vn 0.875789 -0.478143 0.066131
vn 0.875789 -0.478143 0.066131
vn 0.842688 -0.460072 -0.279662
vn 0.842688 -0.460072 -0.279663
vn 0.842688 -0.460072 -0.279662
vn 0.000000 1.000000 0.000000
vn 0.000000 1.000000 0.000000
vn 0.000000 1.000000 0.000000
vn 0.000000 1.000000 0.000000
vn 0.000000 1.000000 0.000000
vn 0.000000 1.000000 0.000000
vn 0.875788 -0.478144 0.066131
vn 0.875788 -0.478144 0.066131
vn 0.875788 -0.478144 0.066131
vn 0.842688 -0.460072 -0.279663
vn 0.842688 -0.460072 -0.279663
vn 0.842688 -0.460072 -0.279663
vn -0.875789 -0.478143 0.066131
vn -0.875789 -0.478143 0.066131
vn -0.875789 -0.478143 0.066131
vn -0.842688 -0.460072 -0.279662
vn -0.842688 -0.460072 -0.279662
vn -0.842688 -0.460072 -0.279663
vn -0.000000 1.000000 -0.000000
vn -0.000000 1.000000 -0.000000
vn -0.000000 1.000000 -0.000000
vn 0.000000 0.561872 0.827224
vn 0.000000 0.561872 0.827224
vn 0.000000 0.561872 0.827224
vn 0.000000 0.561872 0.827224
vn 0.000000 0.986812 0.161870
vn 0.000000 0.986812 0.161870
vn 0.000000 0.986812 0.161870
vn 0.000000 0.986812 0.161870
vn 0.000000 0.000000 -1.000000
vn 0.000000 0.000000 -1.000000
vn 0.000000 0.000000 -1.000000
vn 0.000000 0.000000 -1.000000
vn 0.000000 -1.000000 0.000000
vn 0.000000 -1.000000 0.000000
vn 0.000000 -1.000000 0.000000
vn 0.000000 -1.000000 0.000000
vn -1.000000 0.000000 0.000000
vn -1.000000 0.000000 0.000000
vn -1.000000 0.000000 0.000000
vn -1.000000 0.000000 0.000000
vn 1.000000 0.000000 0.000000
vn 1.000000 0.000000 0.000000
vn 1.000000 0.000000 0.000000
vn 1.000000 0.000000 0.000000
vn 0.000000 0.561872 0.827224
vn 0.000000 0.561872 0.827224
vn 0.000000 0.561872 0.827224
vn 0.000000 0.561872 0.827224
vn 0.000000 0.986812 0.161870
vn 0.000000 0.986812 0.161870
vn 0.000000 0.986812 0.161870
vn 0.000000 0.986812 0.161870
vn 0.000000 0.000000 -1.000000
vn 0.000000 0.000000 -1.000000
vn 0.000000 0.000000 -1.000000
vn 0.000000 0.000000 -1.000000
vn 0.000000 -1.000000 0.000000
vn 0.000000 -1.000000 0.000000
vn 0.000000 -1.000000 0.000000
vn 0.000000 -1.000000 0.000000
vn 1.000000 -0.000000 0.000000
vn 1.000000 -0.000000 0.000000
vn 1.000000 -0.000000 0.000000
vn 1.000000 -0.000000 0.000000
vn -1.000000 0.000000 0.000000
vn -1.000000 0.000000 0.000000
vn -1.000000 0.000000 0.000000
vn -1.000000 0.000000 0.000000
s off
g PawShip cannons
usemtl blinn2SG
f 43/74/155 47/75/156 45/76/157
f 46/77/158 43/74/159 45/78/160
f 46/77/161 45/78/162 47/79/163
f 43/74/164 46/77/165 44/80/166
f 44/80/167 46/77/168 47/75/169
f 47/75/170 43/74/171 44/80/172
f 48/81/173 50/82/174 52/83/175
f 51/84/176 50/85/177 48/81/178
f 51/84/179 52/86/180 50/85/181
f 48/81/182 49/87/183 51/84/184
f 49/87/185 52/83/186 51/84/187
f 52/83/188 49/87/189 48/81/190
f 53/88/191 55/89/192 56/90/193 54/91/194
f 55/92/195 57/93/196 58/94/197 56/90/198
f 57/95/199 59/96/200 60/97/201 58/94/202
f 59/98/203 53/99/204 54/91/205 60/97/206
f 54/91/207 56/90/208 58/94/209 60/97/210
f 59/100/211 57/101/212 55/89/213 53/88/214
f 61/102/215 62/103/216 64/104/217 63/105/218
f 63/106/219 64/104/220 66/107/221 65/108/222
f 65/109/223 66/107/224 68/110/225 67/111/226
f 67/112/227 68/110/228 62/103/229 61/113/230
f 62/103/231 68/110/232 66/107/233 64/104/234
f 67/114/235 61/102/236 63/105/237 65/115/238
